<svg width="27" height="24" viewBox="0 0 27 24" fill="none" xmlns="http://www.w3.org/2000/svg">
<path d="M13.1428 18L17.5237 14L15.9904 12.6L14.238 14.2V10H12.0475V14.2L10.2952 12.6L8.76184 14L13.1428 18ZM5.47612 8V19H20.8095V8H5.47612ZM5.47612 21C4.87374 21 4.3535 20.8083 3.91541 20.425C3.49557 20.025 3.28564 19.55 3.28564 19V6.525C3.28564 6.29167 3.32215 6.06667 3.39517 5.85C3.48644 5.63333 3.61422 5.43333 3.7785 5.25L5.14755 3.725C5.34834 3.49167 5.59477 3.31667 5.88684 3.2C6.19715 3.06667 6.5166 3 6.84517 3H19.4404C19.769 3 20.0793 3.06667 20.3714 3.2C20.6817 3.31667 20.9372 3.49167 21.138 3.725L22.5071 5.25C22.6714 5.43333 22.79 5.63333 22.863 5.85C22.9543 6.06667 22.9999 6.29167 22.9999 6.525V19C22.9999 19.55 22.7809 20.025 22.3428 20.425C21.9229 20.8083 21.4118 21 20.8095 21H5.47612ZM5.91422 6H20.3714L19.4404 5H6.84517L5.91422 6Z" fill="#FEF7FF"/>
</svg>
