<svg width="30" height="30" viewBox="0 0 30 30" fill="none" xmlns="http://www.w3.org/2000/svg">
<path d="M4 28.209C4 29.1981 4.89544 30 6 30H16C20.4848 30 24.0218 28.6069 26.4358 26.3774C28.8272 24.1691 30 21.247 30 18.3582C30 15.4694 28.8272 12.5473 26.4358 10.339C24.0218 8.10955 20.4848 6.71642 16 6.71642H6.82842L10.9142 3.05751C11.6952 2.35805 11.6952 1.22404 10.9142 0.524579C10.1332 -0.17486 8.86684 -0.17486 8.08578 0.524579L0.58578 7.241C-0.19526 7.94045 -0.19526 9.07447 0.58578 9.77393L8.08578 16.4903C8.86684 17.1897 10.1332 17.1897 10.9142 16.4903C11.6952 15.7909 11.6952 14.6568 10.9142 13.9574L6.82842 10.2985H16C19.5152 10.2985 21.9784 11.3681 23.5642 12.8327C25.1728 14.3183 26 16.3216 26 18.3582C26 20.3948 25.1728 22.3981 23.5642 23.8838C21.9782 25.3483 19.5152 26.4179 16 26.4179H6C4.89544 26.4179 4 27.2198 4 28.209Z" fill="white"/>
</svg>
