<svg width="37" height="37" viewBox="0 0 37 37" fill="none" xmlns="http://www.w3.org/2000/svg">
<path d="M21.0232 32.2548C20.76 32.718 20.3821 33.1025 19.9274 33.3697C19.4727 33.637 18.9573 33.7777 18.4326 33.7777C17.9079 33.7777 17.3924 33.637 16.9377 33.3697C16.4831 33.1025 16.1052 32.718 15.8419 32.2548M27.4176 12.3869C27.4176 9.95487 26.4709 7.62249 24.7859 5.90282C23.1009 4.18314 20.8155 3.21704 18.4326 3.21704C16.0496 3.21704 13.7642 4.18314 12.0792 5.90282C10.3942 7.62249 9.44758 9.95487 9.44758 12.3869C9.44758 23.085 4.95508 26.1416 4.95508 26.1416H31.9101C31.9101 26.1416 27.4176 23.085 27.4176 12.3869Z" stroke="white" stroke-width="4" stroke-linecap="round" stroke-linejoin="round"/>
</svg>
