<svg width="30" height="27" viewBox="0 0 30 27" fill="none" xmlns="http://www.w3.org/2000/svg">
<path d="M11.2145 0C5.0209 0 0 5.03563 0 11.2474C0 12.9473 0.376703 14.5617 1.05171 16.0087C0.599961 17.8459 0.20865 19.8082 0.0325071 20.7212C-0.166812 21.7545 0.728704 22.6596 1.75685 22.4761C2.68887 22.3096 4.7148 21.935 6.59627 21.4995C8.00584 22.1391 9.57012 22.4948 11.2145 22.4948C17.4081 22.4948 22.429 17.4591 22.429 11.2474C22.429 5.03563 17.4081 0 11.2145 0ZM11.1576 23.9939C13.1585 25.8557 15.8382 26.9941 18.783 26.9941C20.427 26.9941 21.9909 26.6385 23.4002 25.9992C24.9609 26.3656 26.6693 26.7312 27.7567 26.9592C29.091 27.2388 30.2564 26.0376 29.9508 24.7106C29.7078 23.6557 29.3247 22.0182 28.9463 20.5066C29.621 19.0599 29.9975 17.4459 29.9975 15.7467C29.9975 10.8233 26.8435 6.63892 22.4514 5.11479C22.9752 6.07013 23.3805 7.10009 23.6471 8.18472C26.1187 9.78719 27.7546 12.5754 27.7546 15.7467C27.7546 17.2334 27.3958 18.6329 26.7616 19.8659L26.5664 20.2454L26.6714 20.659C27.012 22.0019 27.3689 23.5083 27.6306 24.6339C26.4731 24.3885 24.9128 24.0488 23.5348 23.7198L23.1393 23.6254L22.7753 23.807C21.5742 24.4067 20.2195 24.7446 18.783 24.7446C17.1987 24.7446 15.7103 24.3327 14.4184 23.61C13.4227 23.8613 12.3802 23.9948 11.3067 23.9948C11.2569 23.9948 11.2072 23.9945 11.1576 23.9939Z" fill="white"/>
</svg>
