<svg width="24" height="36" viewBox="0 0 24 36" fill="none" xmlns="http://www.w3.org/2000/svg">
<path d="M11.9999 13.75V18L14.1249 20.125M18.3891 25.5791L17.8933 31.005C17.8294 31.7114 17.503 32.3682 16.9784 32.8456C16.4538 33.3229 15.7692 33.5862 15.0599 33.5833H8.92575C8.21647 33.5862 7.5319 33.3229 7.00731 32.8456C6.48271 32.3682 6.15625 31.7114 6.09242 31.005L5.59659 25.5791M5.61075 10.4208L6.10659 4.99498C6.1702 4.29101 6.49465 3.63624 7.01625 3.1592C7.53784 2.68216 8.21891 2.41732 8.92575 2.41665H15.0883C15.7975 2.41377 16.4821 2.67703 17.0067 3.15441C17.5313 3.63179 17.8578 4.28857 17.9216 4.99498L18.4174 10.4208M21.9166 18C21.9166 23.4768 17.4767 27.9166 11.9999 27.9166C6.52309 27.9166 2.08325 23.4768 2.08325 18C2.08325 12.5232 6.52309 8.08332 11.9999 8.08332C17.4767 8.08332 21.9166 12.5232 21.9166 18Z" stroke="white" stroke-width="3" stroke-linecap="round" stroke-linejoin="round"/>
</svg>
