<svg width="38" height="36" viewBox="0 0 38 36" fill="none" xmlns="http://www.w3.org/2000/svg">
<g clip-path="url(#clip0_898_2436)">
<path fill-rule="evenodd" clip-rule="evenodd" d="M29.859 15.425C34.3553 15.425 38 11.972 38 7.71249C38 3.45299 34.3553 0 29.859 0C25.3629 0 21.7181 3.45299 21.7181 7.71249C21.7181 11.972 25.3629 15.425 29.859 15.425ZM3.57748 16.2465C5.8681 14.0764 8.97487 12.8573 12.2143 12.8573C15.2687 12.8423 18.2157 13.9243 20.4619 15.8852C22.7081 17.8462 24.0867 20.5406 24.32 23.4259C24.336 23.5307 24.379 23.6301 24.4453 23.7153C24.5116 23.8006 24.5991 23.869 24.7 23.9144C24.7957 23.9639 24.9031 23.9899 25.0121 23.9899C25.1212 23.9899 25.2286 23.9639 25.3243 23.9144C26.2983 23.4102 27.3901 23.145 28.5 23.143C30.2996 23.143 32.0256 23.8203 33.2983 25.0259C34.5708 26.2314 35.2857 27.8666 35.2857 29.5717C35.2857 31.2765 34.5708 32.9117 33.2983 34.1172C32.0256 35.3229 30.2996 36.0003 28.5 36.0003H12.2143C8.97487 36.0003 5.8681 34.7811 3.57748 32.6109C1.28686 30.4408 0 27.4976 0 24.4287C0 21.3598 1.28686 18.4165 3.57748 16.2465Z" fill="black"/>
</g>
<defs>
<clipPath id="clip0_898_2436">
<rect width="38" height="36" fill="white"/>
</clipPath>
</defs>
</svg>
