<svg width="34" height="718" viewBox="0 0 34 718" fill="none" xmlns="http://www.w3.org/2000/svg">
<path d="M22.6667 60.8334V66.5M11.3333 60.8334V66.5M4.25 72.1667H29.75M7.08333 63.6667H26.9167C28.4815 63.6667 29.75 64.9352 29.75 66.5V86.3334C29.75 87.8982 28.4815 89.1667 26.9167 89.1667H7.08333C5.51853 89.1667 4.25 87.8982 4.25 86.3334V66.5C4.25 64.9352 5.51853 63.6667 7.08333 63.6667Z" stroke="white" stroke-width="3" stroke-linecap="round" stroke-linejoin="round"/>
<path d="M29.75 129.167C29.75 139.083 17 147.583 17 147.583C17 147.583 4.25 139.083 4.25 129.167C4.25 125.785 5.5933 122.542 7.98439 120.151C10.3755 117.76 13.6185 116.417 17 116.417C20.3815 116.417 23.6245 117.76 26.0156 120.151C28.4067 122.542 29.75 125.785 29.75 129.167Z" stroke="white" stroke-width="3" stroke-linecap="round" stroke-linejoin="round"/>
<path d="M17 133.417C19.3472 133.417 21.25 131.514 21.25 129.167C21.25 126.819 19.3472 124.917 17 124.917C14.6528 124.917 12.75 126.819 12.75 129.167C12.75 131.514 14.6528 133.417 17 133.417Z" stroke="white" stroke-width="3" stroke-linecap="round" stroke-linejoin="round"/>
<path d="M30.3733 187.654L17.3542 200.673C15.7592 202.268 13.596 203.164 11.3404 203.164C9.08483 203.164 6.92162 202.268 5.32667 200.673C3.73172 199.078 2.83569 196.915 2.83569 194.66C2.83569 192.404 3.73172 190.241 5.32667 188.646L18.3458 175.627C19.4091 174.563 20.8513 173.966 22.355 173.966C23.8587 173.966 25.3009 174.563 26.3642 175.627C27.4275 176.69 28.0248 178.132 28.0248 179.636C28.0248 181.14 27.4275 182.582 26.3642 183.645L13.3308 196.664C12.7992 197.196 12.0781 197.495 11.3263 197.495C10.5744 197.495 9.85332 197.196 9.32167 196.664C8.79002 196.133 8.49134 195.411 8.49134 194.66C8.49134 193.908 8.79002 193.187 9.32167 192.655L21.3492 180.642" stroke="white" stroke-width="3" stroke-linecap="round" stroke-linejoin="round"/>
<path d="M16.9999 13.3334V17.5834L19.1249 19.7084M23.3891 25.1625L22.8933 30.5884C22.8294 31.2948 22.503 31.9515 21.9784 32.4289C21.4538 32.9063 20.7692 33.1696 20.0599 33.1667H13.9258C13.2165 33.1696 12.5319 32.9063 12.0073 32.4289C11.4827 31.9515 11.1562 31.2948 11.0924 30.5884L10.5966 25.1625M10.6108 10.0042L11.1066 4.57836C11.1702 3.87438 11.4947 3.21961 12.0162 2.74257C12.5378 2.26554 13.2189 2.00069 13.9258 2.00002H20.0883C20.7975 1.99715 21.4821 2.2604 22.0067 2.73779C22.5313 3.21517 22.8578 3.87194 22.9216 4.57836L23.4174 10.0042M26.9166 17.5834C26.9166 23.0602 22.4767 27.5 16.9999 27.5C11.5231 27.5 7.08325 23.0602 7.08325 17.5834C7.08325 12.1065 11.5231 7.66669 16.9999 7.66669C22.4767 7.66669 26.9166 12.1065 26.9166 17.5834Z" stroke="white" stroke-width="3" stroke-linecap="round" stroke-linejoin="round"/>
<path d="M8.5 239.75L17 248.25L25.5 239.75" stroke="white" stroke-width="4" stroke-linecap="round" stroke-linejoin="round"/>
<path d="M17 718C18.1046 718 19 717.105 19 716V282C19 280.895 18.1046 280 17 280C15.8954 280 15 280.895 15 282V716C15 717.105 15.8954 718 17 718Z" fill="#E8DEF8"/>
</svg>
