<svg width="34" height="262" viewBox="0 0 34 262" fill="none" xmlns="http://www.w3.org/2000/svg">
<path d="M25.5 249.25L17 240.75L8.5 249.25" stroke="white" stroke-width="4" stroke-linecap="round" stroke-linejoin="round"/>
<path d="M22.6667 59.8334V65.5M11.3333 59.8334V65.5M4.25 71.1667H29.75M7.08333 62.6667H26.9167C28.4815 62.6667 29.75 63.9352 29.75 65.5V85.3334C29.75 86.8982 28.4815 88.1667 26.9167 88.1667H7.08333C5.51853 88.1667 4.25 86.8982 4.25 85.3334V65.5C4.25 63.9352 5.51853 62.6667 7.08333 62.6667Z" stroke="white" stroke-width="4" stroke-linecap="round" stroke-linejoin="round"/>
<g clip-path="url(#clip0_1424_3026)">
<path d="M29.75 128.167C29.75 138.083 17 146.583 17 146.583C17 146.583 4.25 138.083 4.25 128.167C4.25 124.785 5.5933 121.542 7.98439 119.151C10.3755 116.76 13.6185 115.417 17 115.417C20.3815 115.417 23.6245 116.76 26.0156 119.151C28.4067 121.542 29.75 124.785 29.75 128.167Z" stroke="white" stroke-width="4" stroke-linecap="round" stroke-linejoin="round"/>
<path d="M17 132.417C19.3472 132.417 21.25 130.514 21.25 128.167C21.25 125.819 19.3472 123.917 17 123.917C14.6528 123.917 12.75 125.819 12.75 128.167C12.75 130.514 14.6528 132.417 17 132.417Z" stroke="white" stroke-width="4" stroke-linecap="round" stroke-linejoin="round"/>
</g>
<g clip-path="url(#clip1_1424_3026)">
<path d="M30.3733 186.654L17.3542 199.673C15.7592 201.268 13.596 202.164 11.3404 202.164C9.08483 202.164 6.92162 201.268 5.32667 199.673C3.73172 198.078 2.83569 195.915 2.83569 193.66C2.83569 191.404 3.73172 189.241 5.32667 187.646L18.3458 174.627C19.4091 173.563 20.8513 172.966 22.355 172.966C23.8587 172.966 25.3009 173.563 26.3642 174.627C27.4275 175.69 28.0248 177.132 28.0248 178.636C28.0248 180.14 27.4275 181.582 26.3642 182.645L13.3308 195.664C12.7992 196.196 12.0781 196.495 11.3263 196.495C10.5744 196.495 9.85332 196.196 9.32167 195.664C8.79002 195.133 8.49134 194.411 8.49134 193.66C8.49134 192.908 8.79002 192.187 9.32167 191.655L21.3492 179.642" stroke="white" stroke-width="4" stroke-linecap="round" stroke-linejoin="round"/>
</g>
<g clip-path="url(#clip2_1424_3026)">
<path d="M16.9999 12.75V17L19.1249 19.125M23.3891 24.5792L22.8933 30.005C22.8294 30.7114 22.503 31.3682 21.9784 31.8456C21.4538 32.3229 20.7692 32.5862 20.0599 32.5833H13.9258C13.2165 32.5862 12.5319 32.3229 12.0073 31.8456C11.4827 31.3682 11.1562 30.7114 11.0924 30.005L10.5966 24.5792M10.6108 9.42082L11.1066 3.99498C11.1702 3.29101 11.4947 2.63624 12.0162 2.1592C12.5378 1.68216 13.2189 1.41732 13.9258 1.41665H20.0883C20.7975 1.41377 21.4821 1.67703 22.0067 2.15441C22.5313 2.63179 22.8578 3.28857 22.9216 3.99498L23.4174 9.42082M26.9166 17C26.9166 22.4768 22.4767 26.9166 16.9999 26.9166C11.5231 26.9166 7.08325 22.4768 7.08325 17C7.08325 11.5232 11.5231 7.08332 16.9999 7.08332C22.4767 7.08332 26.9166 11.5232 26.9166 17Z" stroke="white" stroke-width="4" stroke-linecap="round" stroke-linejoin="round"/>
</g>
<defs>
<clipPath id="clip0_1424_3026">
<rect width="34" height="34" fill="white" transform="translate(0 114)"/>
</clipPath>
<clipPath id="clip1_1424_3026">
<rect width="34" height="34" fill="white" transform="translate(0 171)"/>
</clipPath>
<clipPath id="clip2_1424_3026">
<rect width="34" height="34" fill="white"/>
</clipPath>
</defs>
</svg>
