<svg width="30" height="30" viewBox="0 0 30 30" fill="none" xmlns="http://www.w3.org/2000/svg">
<path d="M17.418 0.837251C16.0213 -0.279084 13.9787 -0.279084 12.582 0.837251L1.33193 9.82879C0.48735 10.5038 0 11.4974 0 12.5442V27.2368C0 28.7629 1.30583 30 2.91667 30H7.91667C9.5275 30 10.8333 28.7629 10.8333 27.2368V20.9168C10.8333 19.8442 11.7363 18.9715 12.8615 18.9437H17.1385C18.2637 18.9715 19.1667 19.8442 19.1667 20.9168V27.2368C19.1667 28.7629 20.4725 30 22.0833 30H27.0833C28.6942 30 30 28.7629 30 27.2368V12.5442C30 11.4974 29.5127 10.5038 28.668 9.82879L17.418 0.837251Z" fill="white"/>
</svg>
