<svg width="30" height="36" viewBox="0 0 30 36" fill="none" xmlns="http://www.w3.org/2000/svg">
<path d="M27.75 15.1666C27.75 25.0833 15 33.5833 15 33.5833C15 33.5833 2.25 25.0833 2.25 15.1666C2.25 11.7851 3.5933 8.5421 5.98439 6.15101C8.37548 3.75993 11.6185 2.41663 15 2.41663C18.3815 2.41663 21.6245 3.75993 24.0156 6.15101C26.4067 8.5421 27.75 11.7851 27.75 15.1666Z" stroke="white" stroke-width="3" stroke-linecap="round" stroke-linejoin="round"/>
<path d="M15 19.4166C17.3472 19.4166 19.25 17.5138 19.25 15.1666C19.25 12.8194 17.3472 10.9166 15 10.9166C12.6528 10.9166 10.75 12.8194 10.75 15.1666C10.75 17.5138 12.6528 19.4166 15 19.4166Z" stroke="white" stroke-width="3" stroke-linecap="round" stroke-linejoin="round"/>
</svg>
