<svg width="48" height="48" viewBox="0 0 48 48" fill="none" xmlns="http://www.w3.org/2000/svg">
<g clip-path="url(#clip0_898_2440)">
<path fill-rule="evenodd" clip-rule="evenodd" d="M18.2169 6.71006C14.4591 9.20137 11.8739 13.1273 11.0301 17.6243C10.1863 22.1213 11.153 26.8209 13.7176 30.6893C16.2822 34.5578 20.2345 37.2781 24.7051 38.2517C29.1758 39.2255 33.7985 38.373 37.5564 35.8817L37.5635 35.877C39.4013 34.6394 40.9757 33.0477 42.1999 31.1896C42.4547 30.8026 42.467 30.2971 42.2313 29.885C41.9958 29.4727 41.553 29.2248 41.0885 29.2454C38.3299 29.3675 35.5682 28.7598 33.0752 27.4824C30.584 26.206 28.4469 24.3048 26.8738 21.9656C25.3296 19.6152 24.4045 16.9158 24.1889 14.1315C23.9732 11.3451 24.4756 8.56898 25.6467 6.07526C25.8437 5.65559 25.7863 5.15275 25.4983 4.77673C25.21 4.40084 24.7407 4.21635 24.2863 4.30014C22.1241 4.6993 20.068 5.51465 18.2288 6.70228L18.2169 6.71006Z" fill="black"/>
</g>
<defs>
<clipPath id="clip0_898_2440">
<rect width="34" height="35" fill="white" transform="translate(0 18.7871) rotate(-33.5426)"/>
</clipPath>
</defs>
</svg>
