<svg width="31" height="34" viewBox="0 0 31 34" fill="none" xmlns="http://www.w3.org/2000/svg">
<path d="M10.5476 29.0482H20.5271C20.1245 31.4047 18.0438 33.2001 15.5374 33.2001C13.0309 33.2001 10.9502 31.4047 10.5476 29.0482ZM15.5374 0.800049C22.5238 0.800049 28.1876 6.37995 28.1876 13.2631V19.9076L30.5798 25.1589C30.6724 25.3621 30.7204 25.5824 30.7204 25.8053C30.7204 26.6772 30.003 27.3839 29.118 27.3839H1.96312C1.73745 27.3839 1.51435 27.3371 1.30839 27.2462C0.500679 26.8899 0.139017 25.956 0.500612 25.1602L2.88712 19.9083L2.88729 13.2417L2.89475 12.8264C3.12932 6.12833 8.71614 0.800049 15.5374 0.800049Z" fill="white"/>
</svg>
