<svg width="13" height="12" viewBox="0 0 13 12" fill="none" xmlns="http://www.w3.org/2000/svg">
<path d="M9.02923 0.628902C9.93754 -0.209598 11.4103 -0.20964 12.3188 0.628812C13.2271 1.4672 13.2271 2.82647 12.3188 3.6649L11.7394 4.1998C12.5614 4.96151 12.5604 6.19401 11.7364 6.95451L10.5771 8.02448C10.3868 8.2002 10.0781 8.2002 9.88775 8.02448C9.69737 7.84875 9.69737 7.56389 9.88775 7.38816L11.047 6.3182C11.4901 5.90909 11.4912 5.24643 11.05 4.83618L4.55125 10.8353C4.28706 11.0792 3.95472 11.2506 3.59124 11.3305L0.600425 11.9877C0.43574 12.024 0.262502 11.9787 0.142792 11.8682C0.0230873 11.7577 -0.0259423 11.5978 0.0132658 11.4458L0.725401 8.68515C0.811916 8.34971 0.997556 8.04307 1.26167 7.79925L9.02923 0.628902Z" fill="white"/>
</svg>
