<svg width="30" height="30" viewBox="0 0 30 30" fill="none" xmlns="http://www.w3.org/2000/svg">
<path d="M12.8544 18.5689C12.8544 18.0679 12.9404 17.5869 13.0983 17.14H3.21319C1.43859 17.14 0 18.5786 0 20.3534V21.6679C0 22.4853 0.254899 23.2824 0.729204 23.9481C2.93265 27.0408 6.53748 28.5727 11.4254 28.5727C11.9934 28.5727 12.5442 28.5521 13.0774 28.5107C12.9328 28.0809 12.8544 27.6208 12.8544 27.1422V18.5689ZM11.4254 0C15.3709 0 18.5694 3.19868 18.5694 7.14445C18.5694 11.0902 15.3709 14.2889 11.4254 14.2889C7.47983 14.2889 4.28134 11.0902 4.28134 7.14445C4.28134 3.19868 7.47983 0 11.4254 0ZM14.2832 18.5689C14.2832 16.9907 15.5625 15.7111 17.1408 15.7111H27.1424C28.7206 15.7111 30 16.9907 30 18.5689V27.1422C30 28.7206 28.7206 30 27.1424 30H17.1408C15.5625 30 14.2832 28.7206 14.2832 27.1422V18.5689ZM17.8552 19.9978C17.4605 19.9978 17.1408 20.3177 17.1408 20.7122C17.1408 21.1069 17.4605 21.4267 17.8552 21.4267H26.428C26.8225 21.4267 27.1424 21.1069 27.1424 20.7122C27.1424 20.3177 26.8225 19.9978 26.428 19.9978H17.8552ZM17.8552 24.2844C17.4605 24.2844 17.1408 24.6044 17.1408 24.9989C17.1408 25.3935 17.4605 25.7133 17.8552 25.7133H26.428C26.8225 25.7133 27.1424 25.3935 27.1424 24.9989C27.1424 24.6044 26.8225 24.2844 26.428 24.2844H17.8552Z" fill="white"/>
</svg>
