<svg width="29" height="39" viewBox="0 0 29 39" fill="none" xmlns="http://www.w3.org/2000/svg">
<path d="M24.7369 23.2353C26.9367 23.2353 28.7198 25.1385 28.7198 27.4865V29.2225C28.7198 30.3065 28.4024 31.3632 27.8119 32.245C25.0741 36.3342 20.6034 38.3601 14.546 38.3601C8.48724 38.3601 4.01892 36.3334 1.28767 32.242C0.699745 31.3613 0.383789 30.3068 0.383789 29.2254V27.4865C0.383789 25.1385 2.16698 23.2353 4.36666 23.2353H24.7369ZM14.546 0.560059C19.4366 0.560059 23.4013 4.79173 23.4013 10.0118C23.4013 15.2318 19.4366 19.4635 14.546 19.4635C9.65532 19.4635 5.69067 15.2318 5.69067 10.0118C5.69067 4.79173 9.65532 0.560059 14.546 0.560059Z" fill="#333333"/>
</svg>
