<svg width="30" height="30" viewBox="0 0 30 30" fill="none" xmlns="http://www.w3.org/2000/svg">
<path d="M3.53736 20.6108C5.61564 22.6914 8.38327 23.9405 11.3188 24.1226C14.2544 24.3047 17.1553 23.4074 19.4749 21.5996L27.4565 29.5788C27.7395 29.8521 28.1187 30.0034 28.5122 29.9999C28.9057 29.9965 29.2821 29.8387 29.5604 29.5605C29.8387 29.2824 29.9965 28.906 29.9999 28.5126C30.0034 28.1192 29.8521 27.7402 29.5787 27.4572L21.5971 19.478C23.4857 17.0551 24.3785 14.0032 24.0936 10.9448C23.8087 7.8864 22.3676 5.05182 20.064 3.01916C17.7604 0.986497 14.768 -0.0911313 11.697 0.00604413C8.62599 0.10322 5.70773 1.36788 3.53736 3.54211C2.41592 4.66265 1.5263 5.99311 0.919353 7.45746C0.3124 8.92182 0 10.4914 0 12.0765C0 13.6616 0.3124 15.2311 0.919353 16.6955C1.5263 18.1598 2.41592 19.4903 3.53736 20.6108ZM11.1837 3.05477C13.2718 2.84914 15.3667 3.37368 17.1113 4.53902C18.856 5.70435 20.1425 7.43838 20.7517 9.44567C21.3609 11.4529 21.2551 13.6093 20.4522 15.5473C19.6494 17.4853 18.1993 19.0851 16.3488 20.0741C14.4984 21.0631 12.3623 21.3801 10.3043 20.9711C8.24631 20.5621 6.39385 19.4524 5.06252 17.8311C3.73119 16.2097 3.00337 14.1771 3.00305 12.0795C2.99893 10.8875 3.23164 9.70658 3.68766 8.60523C4.95235 5.55087 7.89289 3.37881 11.1837 3.05477ZM5.03521 12.075C5.03521 11.677 5.19334 11.2954 5.4748 11.014C5.75627 10.7326 6.13801 10.5746 6.53607 10.5746C6.93412 10.5746 7.31587 10.7326 7.59733 11.014C7.8788 11.2954 8.03692 11.677 8.03692 12.075C8.03811 13.1447 8.46369 14.1702 9.22029 14.9266C9.9769 15.6829 11.0027 16.1084 12.0727 16.1096C12.4708 16.1096 12.8525 16.2677 13.134 16.549C13.4154 16.8304 13.5736 17.2121 13.5736 17.61C13.5736 18.0079 13.4154 18.3896 13.134 18.671C12.8525 18.9523 12.4708 19.1104 12.0727 19.1104C10.2076 19.1061 8.42011 18.3634 7.10127 17.045C5.78242 15.7265 5.03957 13.9395 5.03521 12.075Z" fill="white"/>
</svg>
