<svg width="30" height="30" viewBox="0 0 30 30" fill="none" xmlns="http://www.w3.org/2000/svg">
<path d="M15.0171 0C16.1932 0.0130154 17.3646 0.143477 18.5124 0.389293C19.0134 0.496601 19.3882 0.89771 19.4451 1.38763L19.7178 3.73664C19.8413 4.81518 20.7897 5.63208 21.9202 5.63321C22.2242 5.63368 22.5247 5.57291 22.8056 5.4536L25.0497 4.50703C25.5164 4.31015 26.0619 4.41749 26.4102 4.77481C28.032 6.43792 29.2397 8.43256 29.9428 10.6086C30.0944 11.0778 29.9199 11.5878 29.5081 11.8793L27.5189 13.2871C26.9514 13.6874 26.6164 14.3231 26.6164 14.9993C26.6164 15.6753 26.9514 16.311 27.5202 16.7122L29.511 18.1205C29.9229 18.4119 30.0976 18.9219 29.946 19.3913C29.2433 21.567 28.0361 23.5614 26.4153 25.2248C26.0673 25.5821 25.5224 25.6898 25.0556 25.4933L22.8024 24.5454C22.1577 24.2745 21.4174 24.3142 20.8081 24.6524C20.1989 24.9904 19.7936 25.5865 19.7162 26.2581L19.4452 28.6068C19.3893 29.0912 19.0227 29.4896 18.5289 29.6024C16.2082 30.1325 13.7903 30.1325 11.4695 29.6024C10.9758 29.4896 10.6091 29.0912 10.5532 28.6068L10.2827 26.2616C10.2033 25.5913 9.79722 24.997 9.1885 24.6601C8.57979 24.3231 7.84066 24.2836 7.19816 24.553L4.9444 25.501C4.47759 25.6974 3.93252 25.5898 3.58443 25.2322C1.9627 23.567 0.755526 21.5701 0.0537598 19.392C-0.0973958 18.923 0.0772488 18.4133 0.489009 18.122L2.48113 16.7128C3.04854 16.3125 3.38365 15.6768 3.38365 15.0008C3.38365 14.3247 3.04854 13.689 2.48037 13.2882L0.489506 11.8813C0.0771525 11.59 -0.0976522 11.0797 0.0540321 10.6101C0.757016 8.4341 1.96482 6.43946 3.58659 4.77635C3.93502 4.41903 4.48034 4.31169 4.94707 4.50856L7.19082 5.45497C7.83643 5.72703 8.57865 5.68594 9.19066 5.34261C9.80003 5.00323 10.2057 4.4065 10.284 3.73484L10.5565 1.38763C10.6134 0.897464 10.9885 0.496217 11.4899 0.389139C12.6392 0.143723 13.8119 0.0133077 15.0171 0ZM14.9971 10.3846C12.3423 10.3846 10.1904 12.451 10.1904 15C10.1904 17.549 12.3423 19.6154 14.9971 19.6154C17.6517 19.6154 19.8038 17.549 19.8038 15C19.8038 12.451 17.6517 10.3846 14.9971 10.3846Z" fill="white"/>
</svg>
