<svg width="31" height="33" viewBox="0 0 31 33" fill="none" xmlns="http://www.w3.org/2000/svg">
<path d="M29.3733 15.6542L16.3542 28.6734C14.7592 30.2683 12.596 31.1644 10.3404 31.1644C8.08483 31.1644 5.92162 30.2683 4.32667 28.6734C2.73172 27.0784 1.83569 24.9152 1.83569 22.6596C1.83569 20.404 2.73172 18.2408 4.32667 16.6459L17.3458 3.62672C18.4091 2.56342 19.8513 1.96606 21.355 1.96606C22.8587 1.96606 24.3009 2.56342 25.3642 3.62672C26.4275 4.69001 27.0248 6.13215 27.0248 7.63588C27.0248 9.13961 26.4275 10.5818 25.3642 11.645L12.3308 24.6642C11.7992 25.1959 11.0781 25.4945 10.3263 25.4945C9.57439 25.4945 8.85332 25.1959 8.32167 24.6642C7.79002 24.1326 7.49134 23.4115 7.49134 22.6596C7.49134 21.9078 7.79002 21.1867 8.32167 20.655L20.3492 8.64172" stroke="white" stroke-width="3" stroke-linecap="round" stroke-linejoin="round"/>
</svg>
