<svg width="30" height="30" viewBox="0 0 30 30" fill="none" xmlns="http://www.w3.org/2000/svg">
<path d="M21.8551 0C23.9854 0 25.7122 1.51104 25.7122 3.375V26.625C25.7122 28.4889 23.9854 30 21.8551 30H3.85714C1.7269 30 0 28.4889 0 26.625V3.375C0 1.51104 1.7269 0 3.85714 0H21.8551ZM27.4286 19.5028H28.7143C29.3652 19.5028 29.9031 19.9261 29.9883 20.4753L30 20.6278V22.875C30 23.4445 29.5162 23.9153 28.8888 23.9898L28.7143 24H27.4286V19.5028ZM27.4286 13.5028H28.7143C29.3652 13.5028 29.9031 13.9261 29.9883 14.4753L30 14.6278V16.875C30 17.4445 29.5162 17.9153 28.8888 17.9898L28.7143 18H27.4286V13.5028ZM27.4286 7.50291H28.7143C29.3652 7.50291 29.9031 7.92613 29.9883 8.47526L30 8.62791V10.875C30 11.4445 29.5162 11.9152 28.8888 11.9897L28.7143 12H27.4286V7.50291ZM18.4347 5.24608H7.28805C6.63715 5.24608 6.09921 5.66931 6.01407 6.21843L6.00233 6.37108V8.62646C6.00233 9.196 6.48603 9.66669 7.11358 9.74118L7.28805 9.75146H18.4347C19.0857 9.75146 19.6236 9.32823 19.7088 8.77911L19.7205 8.62646V6.37108C19.7205 5.74975 19.1448 5.24608 18.4347 5.24608Z" fill="white"/>
</svg>
