<svg width="33" height="36" viewBox="0 0 33 36" fill="none" xmlns="http://www.w3.org/2000/svg">
<path d="M16.5607 35.28C20.4755 35.2834 24.2593 33.7751 27.2136 31.0336C30.168 28.292 32.0936 24.5023 32.6349 20.3639C32.8734 18.6525 32.6075 16.9043 31.874 15.3613C27.4333 6.35325 14.9369 18.8208 14.9385 7.63197C14.9385 2.80394 14.9385 0.719971 11.7007 0.719971C3.57376 0.719971 0.335938 10.5592 0.335938 18C0.338275 20.2717 0.759794 22.5207 1.57643 24.6186C2.39306 26.7164 3.58882 28.622 5.09543 30.2266C6.60203 31.8312 8.38999 33.1034 10.3572 33.9704C12.3244 34.8375 14.4324 35.2825 16.5607 35.28ZM22.1913 18C22.9917 18 23.7742 18.2533 24.4398 18.728C25.1054 19.2027 25.6241 19.8774 25.9305 20.6668C26.2368 21.4562 26.3169 22.3248 26.1608 23.1628C26.0046 24.0008 25.6191 24.7705 25.0531 25.3747C24.4871 25.9788 23.7659 26.3903 22.9808 26.557C22.1957 26.7236 21.382 26.6381 20.6424 26.3111C19.9029 25.9842 19.2708 25.4304 18.8261 24.72C18.3813 24.0096 18.144 23.1744 18.144 22.32C18.144 21.1742 18.5704 20.0754 19.3294 19.2653C20.0884 18.4551 21.1179 18 22.1913 18ZM11.6683 25.776C11.6683 26.2886 11.5259 26.7897 11.2591 27.216C10.9922 27.6423 10.613 27.9745 10.1693 28.1707C9.72553 28.3668 9.23726 28.4182 8.76621 28.3182C8.29515 28.2181 7.86245 27.9713 7.52284 27.6088C7.18323 27.2463 6.95195 26.7844 6.85825 26.2816C6.76455 25.7788 6.81264 25.2577 6.99644 24.784C7.18023 24.3104 7.49148 23.9056 7.89083 23.6208C8.29017 23.336 8.75967 23.184 9.23996 23.184C9.884 23.184 10.5017 23.4571 10.9571 23.9431C11.4125 24.4292 11.6683 25.0885 11.6683 25.776ZM7.62104 7.63197C8.10133 7.63197 8.57083 7.78399 8.97017 8.0688C9.36952 8.35361 9.68077 8.75843 9.86456 9.23205C10.0484 9.70568 10.0965 10.2268 10.0028 10.7296C9.90905 11.2324 9.67777 11.6943 9.33816 12.0568C8.99855 12.4193 8.56585 12.6662 8.0948 12.7662C7.62374 12.8662 7.13547 12.8148 6.69175 12.6187C6.24802 12.4225 5.86876 12.0903 5.60193 11.664C5.3351 11.2378 5.19268 10.7366 5.19268 10.224C5.19268 9.53653 5.44852 8.87724 5.90393 8.39115C6.35934 7.90505 6.977 7.63197 7.62104 7.63197ZM6.00213 15.408C6.48242 15.408 6.95192 15.56 7.35126 15.8448C7.7506 16.1296 8.06185 16.5344 8.24565 17.0081C8.42945 17.4817 8.47754 18.0028 8.38384 18.5056C8.29014 19.0084 8.05886 19.4703 7.71925 19.8328C7.37963 20.1953 6.94694 20.4421 6.47588 20.5422C6.00483 20.6422 5.51656 20.5908 5.07283 20.3947C4.62911 20.1985 4.24985 19.8663 3.98302 19.44C3.71618 19.0138 3.57376 18.5126 3.57376 18C3.57376 17.3125 3.82961 16.6532 4.28502 16.1671C4.74042 15.6811 5.35809 15.408 6.00213 15.408Z" fill="white"/>
</svg>
