<svg width="48" height="48" viewBox="0 0 48 48" fill="none" xmlns="http://www.w3.org/2000/svg">
<path d="M24 44C35.0457 44 44 35.0457 44 24C44 12.9543 35.0457 4 24 4C12.9543 4 4 12.9543 4 24C4 35.0457 12.9543 44 24 44Z" stroke="white" stroke-width="4" stroke-linecap="round" stroke-linejoin="round"/>
<path d="M13.5 17H15.8333M15.8333 17H34.5M15.8333 17V33.3333C15.8333 33.9522 16.0792 34.5457 16.5168 34.9832C16.9543 35.4208 17.5478 35.6667 18.1667 35.6667H29.8333C30.4522 35.6667 31.0457 35.4208 31.4832 34.9832C31.9208 34.5457 32.1667 33.9522 32.1667 33.3333V17M19.3333 17V14.6667C19.3333 14.0478 19.5792 13.4543 20.0168 13.0167C20.4543 12.5792 21.0478 12.3333 21.6667 12.3333H26.3333C26.9522 12.3333 27.5457 12.5792 27.9832 13.0167C28.4208 13.4543 28.6667 14.0478 28.6667 14.6667V17M21.6667 22.8333V29.8333M26.3333 22.8333V29.8333" stroke="white" stroke-width="4" stroke-linecap="round" stroke-linejoin="round"/>
</svg>
