<svg width="81" height="81" viewBox="0 0 81 81" fill="none" xmlns="http://www.w3.org/2000/svg">
<rect width="80.1162" height="81" rx="20" fill="#333333"/>
<path d="M22 27H26M26 27H58M26 27V55C26 56.0609 26.4214 57.0783 27.1716 57.8284C27.9217 58.5786 28.9391 59 30 59H50C51.0609 59 52.0783 58.5786 52.8284 57.8284C53.5786 57.0783 54 56.0609 54 55V27M32 27V23C32 21.9391 32.4214 20.9217 33.1716 20.1716C33.9217 19.4214 34.9391 19 36 19H44C45.0609 19 46.0783 19.4214 46.8284 20.1716C47.5786 20.9217 48 21.9391 48 23V27M36 37V49M44 37V49" stroke="white" stroke-width="4" stroke-linecap="round" stroke-linejoin="round"/>
</svg>
