<svg width="28" height="39" viewBox="0 0 28 39" fill="none" xmlns="http://www.w3.org/2000/svg">
<path d="M24.0643 23.2353C26.238 23.2353 28 25.1385 28 27.4865V29.2225C28 30.3065 27.6864 31.3632 27.1029 32.245C24.3975 36.3342 19.9798 38.3601 13.9943 38.3601C8.00736 38.3601 3.59202 36.3334 0.893158 32.242C0.31221 31.3613 0 30.3068 0 29.2254V27.4865C0 25.1385 1.76204 23.2353 3.93565 23.2353H24.0643ZM13.9943 0.560059C18.8269 0.560059 22.7446 4.79173 22.7446 10.0118C22.7446 15.2318 18.8269 19.4635 13.9943 19.4635C9.16159 19.4635 5.24395 15.2318 5.24395 10.0118C5.24395 4.79173 9.16159 0.560059 13.9943 0.560059Z" fill="white"/>
</svg>
