<svg width="30" height="34" viewBox="0 0 30 34" fill="none" xmlns="http://www.w3.org/2000/svg">
<path d="M10.0665 29.0479H19.9276C19.5298 31.4045 17.4738 33.1998 14.997 33.1998C12.5203 33.1998 10.4642 31.4045 10.0665 29.0479ZM14.997 0.799805C21.9007 0.799805 27.4973 6.37971 27.4973 13.2629V19.9074L29.8612 25.1586C29.9527 25.3619 30 25.5822 30 25.805C30 26.677 29.2912 27.3837 28.4166 27.3837H1.58376C1.36077 27.3837 1.14032 27.3368 0.936796 27.2459C0.138664 26.8897 -0.21871 25.9558 0.138597 25.16L2.49681 19.908L2.49698 13.2414L2.50434 12.8261C2.73613 6.12809 8.25671 0.799805 14.997 0.799805Z" fill="#333333"/>
</svg>
