<svg width="32" height="36" viewBox="0 0 32 36" fill="none" xmlns="http://www.w3.org/2000/svg">
<path d="M16.0324 35.2802C19.9007 35.2836 23.6396 33.7754 26.559 31.0338C29.4784 28.2923 31.3811 24.5025 31.9159 20.3641C32.1516 18.6527 31.8889 16.9045 31.1641 15.3616C26.776 6.35349 14.4278 18.821 14.4294 7.63221C14.4294 2.80418 14.4294 0.720215 11.23 0.720215C3.19943 0.720215 0 10.5594 0 18.0002C0.00230959 20.2719 0.418831 22.521 1.22578 24.6188C2.03273 26.7167 3.21431 28.6223 4.70305 30.2269C6.1918 31.8315 7.95855 33.1036 9.90243 33.9707C11.8463 34.8377 13.9293 35.2827 16.0324 35.2802ZM21.5962 18.0002C22.3872 18.0002 23.1604 18.2536 23.8181 18.7283C24.4757 19.2029 24.9883 19.8776 25.291 20.667C25.5937 21.4564 25.6729 22.325 25.5186 23.163C25.3643 24.001 24.9834 24.7707 24.4241 25.3749C23.8648 25.9791 23.1522 26.3905 22.3764 26.5572C21.6006 26.7239 20.7965 26.6383 20.0657 26.3114C19.3349 25.9844 18.7103 25.4307 18.2709 24.7203C17.8314 24.0099 17.5969 23.1746 17.5969 22.3202C17.5969 21.1745 18.0182 20.0757 18.7682 19.2655C19.5183 18.4554 20.5355 18.0002 21.5962 18.0002ZM11.198 25.7762C11.198 26.2889 11.0573 26.79 10.7936 27.2162C10.5299 27.6425 10.1552 27.9747 9.71672 28.1709C9.27825 28.3671 8.79578 28.4184 8.33031 28.3184C7.86483 28.2184 7.43727 27.9715 7.10168 27.609C6.7661 27.2465 6.53756 26.7847 6.44497 26.2819C6.35238 25.7791 6.3999 25.2579 6.58152 24.7843C6.76314 24.3107 7.0707 23.9059 7.46531 23.621C7.85991 23.3362 8.32385 23.1842 8.79844 23.1842C9.43484 23.1842 10.0452 23.4573 10.4952 23.9434C10.9452 24.4295 11.198 25.0888 11.198 25.7762ZM7.19872 7.63221C7.67331 7.63221 8.13725 7.78423 8.53185 8.06904C8.92646 8.35386 9.23402 8.75867 9.41564 9.2323C9.59726 9.70592 9.64478 10.2271 9.55219 10.7299C9.4596 11.2327 9.23106 11.6945 8.89548 12.057C8.55989 12.4195 8.13233 12.6664 7.66686 12.7664C7.20138 12.8664 6.71891 12.8151 6.28045 12.6189C5.84198 12.4227 5.46722 12.0905 5.20355 11.6642C4.93988 11.238 4.79915 10.7369 4.79915 10.2242C4.79915 9.53677 5.05196 8.87749 5.50197 8.39139C5.95197 7.9053 6.56232 7.63221 7.19872 7.63221ZM5.59901 15.4082C6.0736 15.4082 6.53753 15.5602 6.93214 15.845C7.32675 16.1299 7.63431 16.5347 7.81592 17.0083C7.99754 17.4819 8.04506 18.0031 7.95247 18.5059C7.85989 19.0087 7.63135 19.4705 7.29576 19.833C6.96018 20.1955 6.53261 20.4424 6.06714 20.5424C5.60167 20.6424 5.11919 20.5911 4.68073 20.3949C4.24226 20.1987 3.8675 19.8665 3.60383 19.4402C3.34016 19.014 3.19943 18.5129 3.19943 18.0002C3.19943 17.3128 3.45224 16.6535 3.90225 16.1674C4.35226 15.6813 4.9626 15.4082 5.59901 15.4082Z" fill="white"/>
</svg>
