<svg width="140" height="140" viewBox="0 0 140 140" fill="none" xmlns="http://www.w3.org/2000/svg">
<path d="M0 70C0 31.4027 31.4027 0 70 0C108.597 0 140 31.4027 140 70C140 108.597 108.597 140 70 140C31.4027 140 0 108.598 0 70ZM73.0436 15.2173C73.0436 13.5373 71.68 12.1737 70 12.1737C68.32 12.1737 66.9564 13.5373 66.9564 15.2173C66.9564 16.8973 68.32 18.2609 70 18.2609C71.68 18.2609 73.0436 16.8973 73.0436 15.2173ZM12.174 70C12.174 71.68 13.5376 73.0436 15.2176 73.0436C16.8976 73.0436 18.2609 71.68 18.2609 70C18.2609 68.32 16.8973 66.9564 15.2173 66.9564C13.5373 66.9564 12.174 68.32 12.174 70ZM127.826 70C127.826 68.32 126.463 66.9564 124.783 66.9564C123.103 66.9564 121.739 68.32 121.739 70C121.739 71.68 123.103 73.0436 124.783 73.0436C126.463 73.0436 127.826 71.68 127.826 70ZM79.1304 70C79.1304 66.0374 76.5799 62.6897 73.0436 61.4297V27.3913C73.0436 25.7113 71.68 24.3478 70 24.3478C68.32 24.3478 66.9567 25.7113 66.9567 27.3913V61.4297C66.2445 61.6853 65.5629 61.9897 64.948 62.4035L51.5322 52.3417C50.1869 51.3374 48.2818 51.6113 47.2715 52.9566C46.2671 54.2956 46.5288 56.201 47.8801 57.2174L61.3201 67.2974C61.0584 68.1556 60.8696 69.0504 60.8696 70C60.8696 75.034 64.966 79.1304 70 79.1304C75.034 79.1304 79.1304 75.034 79.1304 70ZM73.0436 124.783C73.0436 123.103 71.68 121.739 70 121.739C68.32 121.739 66.9564 123.103 66.9564 124.783C66.9564 126.463 68.32 127.826 70 127.826C71.68 127.826 73.0436 126.463 73.0436 124.783Z" fill="white"/>
</svg>
