<svg width="88" height="125" viewBox="0 0 88 125" fill="none" xmlns="http://www.w3.org/2000/svg">
<path d="M83.1395 11.7858H88V0H0V11.7858H4.86099V14.8443C4.86099 34.0446 11.3965 51.6543 22.1604 62.1019C11.3965 72.5515 4.86099 90.1597 4.86099 109.361V113.214H0V125H88V113.214H83.1395V109.361C83.1395 90.1597 76.603 72.5517 65.8404 62.1019C76.603 51.6543 83.1395 34.0477 83.1395 14.8443V11.7858ZM57.6419 59.0275L53.6057 62.1019L57.6419 65.1763C67.7143 72.8561 74.4746 88.4056 75.3673 105.503H12.6349C13.527 88.4073 20.2844 72.8577 30.3597 65.1763L34.3937 62.1019L30.3597 59.0275C20.286 51.3469 13.527 35.7995 12.6349 18.7022H75.3649C74.4746 35.7995 67.714 51.3469 57.6419 59.0275ZM20.7221 24.8328H67.2776C66.6046 37.8144 61.47 49.622 53.8164 55.4535C53.8164 55.4535 52.5059 56.0225 50.7558 57.7862C47.1352 62.9849 46.942 81.9872 46.936 82.825C49.5355 83.104 52.344 84.207 55.1273 86.7631C64.9474 95.7841 67.7967 96.848 68.1394 103.397H22.0944C22.4368 96.8497 28.0237 92.1641 35.1057 86.7631C35.1057 86.7631 38.4749 83.7901 43.2006 82.9652C43.1146 82.8159 43.0641 82.7151 43.0641 82.7151C43.0641 64.8163 37.2439 57.1415 37.2439 57.1415L33.1069 54.8088C25.4557 48.9734 21.3973 37.8147 20.7221 24.8328Z" fill="white"/>
</svg>
